<?xml version="1.0" encoding="UTF-8" standalone="no"?>
<svg width="43px" height="37px" viewBox="0 0 43 37" version="1.1" xmlns="http://www.w3.org/2000/svg" xmlns:xlink="http://www.w3.org/1999/xlink">
    <!-- Generator: Sketch 3.6.1 (26313) - http://www.bohemiancoding.com/sketch -->
    <title>poolside</title>
    <desc>Created with Sketch.</desc>
    <defs></defs>
    <g id="Page-1" stroke="none" stroke-width="1" fill="none" fill-rule="evenodd">
        <g id="Desktop" transform="translate(-931.000000, -992.000000)" stroke="#979797">
            <g id="poolside" transform="translate(931.000000, 992.000000)">
                <g id="Group-7">
                    <path d="M13.8181939,5 L1,18.0470902 L27.0851472,18.0470902 L13.8181939,5 Z" id="Path-65"></path>
                    <path d="M14.5,18 L14.5,30.5778824" id="Path-66"></path>
                    <path d="M0,30.375 L31.8026975,30.375 L42,19.125" id="Path-67"></path>
                    <path d="M9.94736842,30.375 L4.27071192,36.1530254" id="Path-68"></path>
                    <path d="M19.8947368,30.375 L25.5713933,36.1530254" id="Path-68"></path>
                    <ellipse id="Oval-5" cx="34.2631579" cy="7.875" rx="3.31578947" ry="3.375"></ellipse>
                    <path d="M34.5,0 L34.5,2.25" id="Path-70"></path>
                    <path d="M34.5,13.5 L34.5,15.75" id="Path-70-Copy"></path>
                    <path d="M28.1315789,7.5 L26.1315789,7.5" id="Path-70"></path>
                    <path d="M42.3947368,7.5 L40.3947368,7.5" id="Path-70-Copy"></path>
                    <path d="M40.0716116,1.97702923 L38.4806213,3.56801948" id="Path-70"></path>
                    <path d="M30.0456945,12.1819805 L28.4547042,13.7729708" id="Path-70-Copy"></path>
                    <path d="M30.0456945,3.56801948 L28.4547042,1.97702923" id="Path-70"></path>
                    <path d="M40.0716116,13.7729708 L38.4806213,12.1819805" id="Path-70-Copy"></path>
                </g>
            </g>
        </g>
    </g>
</svg>