<?xml version="1.0" encoding="UTF-8" standalone="no"?>
<svg width="56px" height="55px" viewBox="0 0 56 55" version="1.1" xmlns="http://www.w3.org/2000/svg" xmlns:xlink="http://www.w3.org/1999/xlink">
    <!-- Generator: Sketch 3.8.3 (29802) - http://www.bohemiancoding.com/sketch -->
    <title>2</title>
    <desc>Created with Sketch.</desc>
    <defs></defs>
    <g id="Page-1" stroke="none" stroke-width="1" fill="none" fill-rule="evenodd">
        <g id="1.Transaction-landing-page" transform="translate(-671.000000, -1060.000000)">
            <g id="2" transform="translate(672.000000, 1061.000000)">
                <ellipse id="Oval-2" stroke="#F8E81C" cx="29" cy="28" rx="25" ry="25"></ellipse>
                <ellipse id="Oval-2" stroke="#0CD168" cx="27" cy="25" rx="25" ry="25"></ellipse>
                <ellipse id="Oval-2" stroke="#E72E77" cx="25" cy="28" rx="25" ry="25"></ellipse>
                <path d="M30.732,35 L19.74,35 L19.74,33.416 C21.4040083,32.1039934 22.6959954,31.0600039 23.616,30.284 C24.5360046,29.5079961 25.4239957,28.6840044 26.28,27.812 C27.1360043,26.9399956 27.7399982,26.1640034 28.092,25.484 C28.4440018,24.8039966 28.62,24.1280034 28.62,23.456 C28.62,22.4959952 28.2920033,21.7680025 27.636,21.272 C26.9799967,20.7759975 26.1960046,20.528 25.284,20.528 C23.4439908,20.528 21.9960053,21.1999933 20.94,22.544 L19.716,21.272 C20.324003,20.471996 21.1199951,19.8520022 22.104,19.412 C23.0880049,18.9719978 24.1479943,18.752 25.284,18.752 C26.7400073,18.752 27.9999947,19.1599959 29.064,19.976 C30.1280053,20.7920041 30.66,21.9519925 30.66,23.456 C30.66,24.9440074 30.0200064,26.4279926 28.74,27.908 C27.4599936,29.3880074 25.5080131,31.1599897 22.884,33.224 L30.732,33.224 L30.732,35 Z" fill="#222222"></path>
            </g>
        </g>
    </g>
</svg>