<?xml version="1.0" encoding="UTF-8" standalone="no"?>
<svg width="56px" height="55px" viewBox="0 0 56 55" version="1.1" xmlns="http://www.w3.org/2000/svg" xmlns:xlink="http://www.w3.org/1999/xlink">
    <!-- Generator: Sketch 3.8.3 (29802) - http://www.bohemiancoding.com/sketch -->
    <title>3</title>
    <desc>Created with Sketch.</desc>
    <defs></defs>
    <g id="Page-1" stroke="none" stroke-width="1" fill="none" fill-rule="evenodd">
        <g id="1.Transaction-landing-page" transform="translate(-1084.000000, -1060.000000)">
            <g id="3" transform="translate(1085.000000, 1061.000000)">
                <ellipse id="Oval-2" stroke="#F8E81C" cx="29" cy="28" rx="25" ry="25"></ellipse>
                <ellipse id="Oval-2" stroke="#0CD168" cx="27" cy="25" rx="25" ry="25"></ellipse>
                <ellipse id="Oval-2" stroke="#E72E77" cx="25" cy="28" rx="25" ry="25"></ellipse>
                <path d="M24.7,35.288 C23.4199936,35.288 22.284005,35.0400025 21.292,34.544 C20.299995,34.0479975 19.5400026,33.4160038 19.012,32.648 L20.188,31.4 C20.6680024,32.0400032 21.2999961,32.5519981 22.084,32.936 C22.8680039,33.3200019 23.7239954,33.512 24.652,33.512 C25.8200058,33.512 26.7359967,33.2440027 27.4,32.708 C28.0640033,32.1719973 28.396,31.4400046 28.396,30.512 C28.396,29.5519952 28.0400036,28.8400023 27.328,28.376 C26.6159964,27.9119977 25.6440062,27.68 24.412,27.68 C23.4679953,27.68 22.9160008,27.6879999 22.756,27.704 L22.756,25.88 C22.9320009,25.8960001 23.4839954,25.904 24.412,25.904 C25.5000054,25.904 26.3919965,25.6840022 27.088,25.244 C27.7840035,24.8039978 28.132,24.1440044 28.132,23.264 C28.132,22.4159958 27.7920034,21.7480024 27.112,21.26 C26.4319966,20.7719976 25.5800051,20.528 24.556,20.528 C22.9399919,20.528 21.532006,21.1759935 20.332,22.472 L19.228,21.224 C20.5880068,19.5759918 22.4119886,18.752 24.7,18.752 C26.2840079,18.752 27.5839949,19.1319962 28.6,19.892 C29.6160051,20.6520038 30.124,21.6959934 30.124,23.024 C30.124,24.0800053 29.7720035,24.9239968 29.068,25.556 C28.3639965,26.1880032 27.5640045,26.5839992 26.668,26.744 C27.5480044,26.8240004 28.383996,27.2079966 29.176,27.896 C29.968004,28.5840034 30.364,29.5119942 30.364,30.68 C30.364,32.0400068 29.8520051,33.1479957 28.828,34.004 C27.8039949,34.8600043 26.4280086,35.288 24.7,35.288 L24.7,35.288 Z" fill="#222222"></path>
            </g>
        </g>
    </g>
</svg>