<?xml version="1.0" encoding="utf-8"?>
<!-- Generator: Adobe Illustrator 19.1.0, SVG Export Plug-In . SVG Version: 6.00 Build 0)  -->
<svg version="1.1" id="Layer_1" xmlns:sketch="http://www.bohemiancoding.com/sketch/ns"
	 xmlns="http://www.w3.org/2000/svg" xmlns:xlink="http://www.w3.org/1999/xlink" x="0px" y="0px" viewBox="-285 377.2 40 38.8"
	 style="enable-background:new -285 377.2 40 38.8;" xml:space="preserve">
<title>Rectangle 48</title>
<desc>Created with Sketch.</desc>
<path d="M-284.8,405.6c0.4,0.3,2.3,1.5,10.5,1.6c0,0.4-0.1,0.7-0.1,1v0.2l0.2,0.2c0.5,0.5,3.1,2.1,14.2,2.1c11.2,0,13.7-1.5,14.2-2
	l0.2-0.2v-0.2c-0.1-0.8-0.2-2.9-0.4-3.8c-0.4-1.2-1-1.8-1.7-2.2c-0.3-0.2-1.5-0.7-3.4-1.4c-1.7-0.7-3.6-1.4-4.3-1.7
	c-0.6-0.3-1.3-1.9-1.1-2.4c0-0.1,0.3-0.4,0.4-0.5l0,0l0,0c0.7-0.8,1.7-2.3,2.1-3.8c0.5-2,1-6.1-0.9-8.6c-1-1.4-2.7-2.2-4.9-2.3h0
	h-0.2c-2.2,0-3.8,0.8-4.9,2.2c-1.9,2.5-1.4,6.5-0.9,8.6c0.4,1.5,1.3,3,2.1,3.8c0.3,0.4,0.4,0.5,0.4,0.5c0,0.5-0.5,2.1-1.1,2.4
	c-0.3,0.2-1,0.5-1.9,0.8c-0.3-0.1-0.5-0.2-0.8-0.3h0c-1.3-0.5-2.7-1-3.2-1.3c-0.4-0.2-0.9-1.4-0.8-1.7c0-0.1,0.3-0.3,0.3-0.3
	c0.6-0.6,1.3-1.8,1.6-2.9c0.4-1.5,0.7-4.7-0.7-6.6c-0.8-1.1-2.1-1.7-3.8-1.7h0h-0.1c-1.7,0-3,0.7-3.8,1.7c-1.4,1.9-1.1,5.1-0.7,6.6
	c0.3,1.1,1,2.3,1.6,2.9c0.2,0.2,0.3,0.3,0.3,0.3c0,0.4-0.4,1.5-0.8,1.7c-0.5,0.3-2,0.9-3.2,1.3c-1.4,0.5-2.4,0.9-2.6,1
	c-0.5,0.3-1,0.8-1.3,1.7c-0.3,0.7-0.4,2.3-0.4,2.9v0.2L-284.8,405.6z M-273.4,408c0-0.3,0-0.5,0.1-0.8c0-0.3,0.1-0.7,0.1-1
	c0.1-0.7,0.2-1.2,0.3-1.6c0.3-1,0.7-1.4,1.3-1.7c0.3-0.2,2-0.8,3.2-1.3c0.7-0.3,1.4-0.5,2.1-0.8c0.5-0.2,0.9-0.3,1.3-0.5
	c0.4-0.2,0.8-0.3,1-0.5c1-0.6,1.6-2.7,1.6-3.4c0-0.4-0.2-0.7-0.7-1.2c-0.6-0.7-1.5-2.1-1.8-3.4c-0.5-1.8-0.9-5.5,0.7-7.7
	c0.9-1.1,2.2-1.8,4.1-1.8h0.1h0c1.9,0,3.2,0.7,4.1,1.8c1.6,2.2,1.2,5.9,0.7,7.7c-0.3,1.3-1.2,2.7-1.8,3.4l0,0l0,0
	c-0.3,0.3-0.5,0.6-0.6,0.9c-0.4,1,0.6,3.1,1.5,3.6c0.7,0.4,2.6,1.1,4.4,1.8c1.2,0.4,2.9,1.1,3.2,1.3c0.5,0.4,0.9,0.8,1.3,1.7
	c0.2,0.7,0.4,2.1,0.5,3.3c-0.7,0.4-3.5,1.6-13.4,1.6C-269.9,409.6-272.7,408.3-273.4,408z M-284.1,405c0.1-1.1,0.2-2,0.3-2.4
	c0.3-0.7,0.5-1,0.9-1.3c0.2-0.1,1.6-0.7,2.4-1c1.4-0.5,2.8-1,3.4-1.4c0.9-0.5,1.3-2.1,1.3-2.6c0-0.3-0.2-0.6-0.5-1
	c-0.5-0.5-1.1-1.5-1.4-2.5c-0.3-1.4-0.7-4.1,0.6-5.8c0.7-0.9,1.7-1.3,3.1-1.4h0.1l0,0c1.4,0,2.4,0.5,3.1,1.4
	c1.2,1.6,0.9,4.4,0.6,5.8c-0.3,1-0.9,2-1.4,2.5c-0.2,0.3-0.4,0.5-0.5,0.7c-0.3,0.9,0.5,2.4,1.2,2.9c0.6,0.3,1.9,0.8,3.2,1.3
	c-0.3,0.1-0.7,0.3-1,0.4c-1.8,0.7-3.1,1.1-3.4,1.4c-0.7,0.4-1.2,1-1.7,2.2c-0.2,0.4-0.3,1.2-0.4,1.9
	C-281.3,406.1-283.5,405.4-284.1,405z"/>
</svg>
