<svg xmlns="http://www.w3.org/2000/svg" xmlns:xlink="http://www.w3.org/1999/xlink" version="1.1" x="0px" y="0px" viewBox="0 0 90 84.94875" style="enable-background:new 0 0 90 67.959;" xml:space="preserve"><g><g><path d="M78.062,0H11.938C5.355,0,0,5.355,0,11.938v44.082c0,6.583,5.355,11.938,11.938,11.938h7.348    c0.509,0,0.918-0.412,0.918-0.918v-6.429h9.184v6.429c0,0.506,0.409,0.918,0.919,0.918h29.387c0.51,0,0.919-0.412,0.919-0.918    v-6.429h9.184v6.429c0,0.506,0.409,0.918,0.919,0.918h7.347C84.645,67.959,90,62.604,90,56.021V11.938C90,5.355,84.645,0,78.062,0    z M88.163,56.021c0,5.571-4.53,10.102-10.102,10.102h-6.429v-6.429c0-0.505-0.409-0.918-0.918-0.918H59.693    c-0.509,0-0.918,0.413-0.918,0.918v6.429H31.225v-6.429c0-0.505-0.409-0.918-0.918-0.918H19.286c-0.51,0-0.919,0.413-0.919,0.918    v6.429h-6.429c-5.571,0-10.102-4.53-10.102-10.102V11.938c0-5.571,4.53-10.102,10.102-10.102h66.123    c5.571,0,10.102,4.53,10.102,10.102V56.021z"/><path d="M29.915,31.486c-0.251-0.104-0.556-0.613-0.187-1.854c2.533-2.673,3.62-5.248,3.62-8.566c0-5.65-3.183-9.299-8.101-9.299    c-4.947,0-8.144,3.648-8.144,9.299c0,4.125,1.869,6.68,3.745,8.623c0.438,1.346-0.344,1.74-0.498,1.802    c-5.188,1.872-10.486,4.24-10.486,7.598v1.489c0,3.827,5.044,5.686,15.422,5.686c10.321,0,15.34-1.858,15.34-5.686v-1.489    C40.627,36.279,37.319,33.937,29.915,31.486z M38.79,40.577c0,2.446-4.922,3.849-13.503,3.849c-8.635,0-13.585-1.402-13.585-3.849    v-1.489c0-1.672,3.117-3.648,9.284-5.872c0.491-0.188,1.198-0.692,1.567-1.511c0.373-0.821,0.355-1.775-0.047-2.838    c-0.043-0.118-0.114-0.226-0.2-0.315c-2.393-2.443-3.365-4.609-3.365-7.486c0-4.604,2.414-7.462,6.307-7.462    c3.921,0,6.264,2.791,6.264,7.462c0,2.909-0.951,5.072-3.275,7.469c-0.133,0.136-0.215,0.309-0.244,0.491    c-0.377,1.22-0.362,2.238,0.043,3.038c0.424,0.829,1.102,1.102,1.292,1.163c7.82,2.586,9.463,4.616,9.463,5.861V40.577z"/><path d="M64.831,13.692c-4.187,0-7.824,1.515-10.809,4.503c-2.985,2.98-4.499,6.615-4.499,10.805    c0,4.201,1.511,7.846,4.488,10.845c2.802,2.816,6.191,4.326,10.084,4.495v-1.887c-3.383-0.165-6.324-1.481-8.761-3.921    C52.73,35.913,51.41,32.706,51.41,29c0-3.713,1.317-6.913,3.911-9.507c2.601-2.597,5.801-3.917,9.51-3.917    c3.688,0,6.898,1.324,9.539,3.936c2.644,2.618,3.981,5.812,3.981,9.488c0,1.586-0.272,3.104-0.811,4.506    c-0.818,2.088-2.049,3.146-3.659,3.146c-1.158,0-3.103-0.538-3.103-4.147V21.546H68.87v2.016l-1.241-1.173    c-0.868-0.825-2.052-1.224-3.612-1.224c-2.124,0-3.767,0.758-5.022,2.317c-1.205,1.493-1.793,3.305-1.793,5.543    c0,2.195,0.605,4.064,1.797,5.561c1.27,1.614,2.913,2.396,5.019,2.396c1.783,0,3.196-0.589,4.315-1.798l0.757-0.817l0.452,1.019    c0.919,2.052,2.336,3.049,4.341,3.049c2.095,0,3.663-1.015,4.793-3.099c0.969-1.766,1.46-3.896,1.46-6.336    c0-4.258-1.467-7.799-4.488-10.823C72.666,15.199,69.024,13.692,64.831,13.692z M64.017,35.149c-2.135,0-4.675-1.063-4.675-6.124    c0-1.503,0.345-2.823,1.026-3.925c0.836-1.37,2.099-2.099,3.648-2.099c2.12,0,4.649,1.019,4.649,5.869    C68.666,34.059,66.137,35.149,64.017,35.149z"/></g></g></svg>